<?xml version="1.0" encoding="UTF-8"?><!DOCTYPE svg PUBLIC "-//W3C//DTD SVG 1.1//EN" "http://www.w3.org/Graphics/SVG/1.1/DTD/svg11.dtd"><svg xmlns="http://www.w3.org/2000/svg" xmlns:xlink="http://www.w3.org/1999/xlink" height="48px" version="1.1" viewBox="0 0 48 48" width="48px" xml:space="preserve"><g id="Expanded"><path d="M24 20c-11.215 0-20-3.953-20-9s8.785-9 20-9 20 3.953 20 9-8.785 9-20 9zm0-16C15.486 4 6 6.875 6 11s9.486 7 18 7 18-2.875 18-7-9.486-7-18-7z"/><path d="M24 28c-11.215 0-20-3.953-20-9v-8a1 1 0 1 1 2 0v8c0 4.125 9.486 7 18 7s18-2.875 18-7v-8a1 1 0 1 1 2 0v8c0 5.047-8.785 9-20 9z"/><path d="M24 37c-11.215 0-20-3.953-20-9v-9a1 1 0 1 1 2 0v9c0 4.125 9.486 7 18 7s18-2.875 18-7v-9a1 1 0 1 1 2 0v9c0 5.047-8.785 9-20 9z"/><path d="M24 46c-11.215 0-20-3.953-20-9v-9a1 1 0 1 1 2 0v9c0 4.125 9.486 7 18 7s18-2.875 18-7v-9a1 1 0 1 1 2 0v9c0 5.047-8.785 9-20 9z"/></g><metadata><rdf:RDF xmlns:rdf="http://www.w3.org/1999/02/22-rdf-syntax-ns#" xmlns:rdfs="http://www.w3.org/2000/01/rdf-schema#" xmlns:dc="http://purl.org/dc/elements/1.1/"><rdf:Description about="https://iconscout.com/legal#licenses" dc:title="database,streamline" dc:description="database,streamline" dc:publisher="Iconscout" dc:date="2017-09-19" dc:format="image/svg+xml" dc:language="en"><dc:creator><rdf:Bag><rdf:li>Vincent Le Moign</rdf:li></rdf:Bag></dc:creator></rdf:Description></rdf:RDF></metadata></svg>