<?xml version="1.0" encoding="UTF-8"?><!DOCTYPE svg PUBLIC "-//W3C//DTD SVG 1.1//EN" "http://www.w3.org/Graphics/SVG/1.1/DTD/svg11.dtd"><svg xmlns="http://www.w3.org/2000/svg" xmlns:xlink="http://www.w3.org/1999/xlink" version="1.1" id="Layer_1" x="0px" y="0px" width="48px" height="48px" viewBox="0 0 48 48" xml:space="preserve" fill="#000"><path d="M24 48c-9.939 0-18-4.029-18-9v-5.064C6 38.91 14.061 42 24 42s18-3.09 18-8.064V39c0 4.971-8.061 9-18 9zm0-9c-9.939 0-18-4.029-18-9v-5.064C6 29.91 14.061 33 24 33s18-3.09 18-8.064V30c0 4.971-8.061 9-18 9zm0-9c-9.939 0-18-4.029-18-9v-5.064C6 20.91 14.061 24 24 24s18-3.09 18-8.064V21c0 4.971-8.061 9-18 9zm0-9c-9.939 0-18-4.029-18-9V9c0-4.971 8.061-9 18-9s18 4.029 18 9v3c0 4.971-8.061 9-18 9z"/><metadata><rdf:RDF xmlns:rdf="http://www.w3.org/1999/02/22-rdf-syntax-ns#" xmlns:rdfs="http://www.w3.org/2000/01/rdf-schema#" xmlns:dc="http://purl.org/dc/elements/1.1/"><rdf:Description about="https://iconscout.com/legal#licenses" dc:title="database" dc:description="database" dc:publisher="Iconscout" dc:date="2017-09-24" dc:format="image/svg+xml" dc:language="en"><dc:creator><rdf:Bag><rdf:li>Adam</rdf:li></rdf:Bag></dc:creator></rdf:Description></rdf:RDF></metadata></svg>