<svg xmlns="http://www.w3.org/2000/svg" width="48" height="48" viewBox="0 0 48 48"><g transform="translate(0 -1004.362)"><circle cx="24" cy="1028.362" r="24" fill="#e7ecf1"/><rect width="19" height="32.994" x="14.372" y="1009.368" fill="#3d444d" rx="1.431" ry="1.424"/><rect width="15" height="24.003" x="16.372" y="1012.359" fill="#f9f9f9" rx="0" ry="0"/><path fill="#4f5863" d="m 22.038474,1010.3722 0,0.9871 4,0 0,-0.9871 -4,0 z" color="#000" font-family="Sans" font-weight="400" overflow="visible" style="line-height:normal;-inkscape-font-specification:Sans;text-indent:0;text-align:start;text-decoration-line:none;text-transform:none;block-progression:tb;marker:none"/><ellipse cx="17.532" cy="1010.859" fill="#4f5863" rx=".507" ry=".5"/><ellipse cx="23.872" cy="1039.362" fill="#4f5863" rx="1.5" ry="1.5"/><g transform="translate(-189.277 -230.805)"><g transform="translate(0 181.726)"><g transform="translate(189.648 49.873)"><path fill="#f9d5ac" d="m 18.875,3.5 c -2.914481,2.7526165 -5.138387,6.733201 -5,10.40625 l 0,8.1875 c -1.147723,3.481849 -3.233003,6.233003 -5,8 l 0.09375,0.03125 0.03125,0 2.65625,0.40625 5.71875,0.875 0,-0.03125 0.03125,0 0.03125,-0.1875 1.9375,-5.90625 C 23.786777,21.703278 22.278936,15.319304 22.508929,12.495536 22.738922,9.671768 23.389981,10.0677 23.1875,8.375 c 0,-1.3452 -0.547548,-2.10825 -1.46875,-2.03125 -0.921202,0.0766 -1.060238,0.80775 -1.375,2.03125 -0.471934,1.834467 -0.981766,4.195955 -1.46875,5.160714 z" transform="translate(-4.875 1018.275)"/><path fill="#f7c68f" d="m 12.28959,1036.3174 c 0.232458,-1.2342 0.330654,-2.3745 1.710494,-4.4119 l 0,-4.9865 c 0,0 -1.588572,2.8735 -1.862922,4.2904 -0.27435,1.4169 0.15243,5.108 0.152428,5.108 z"/><path fill="#f7c68f" d="m 22.569503,17.342809 c -0.09814,3.486928 -2.172233,4.949272 -3.328432,6.29112 L 17.46875,31.09375 19.375,25.28125 c 2.883193,-2.494917 3.237348,-4.467834 3.194503,-7.938441 z M 11.65625,30.53125 l 5.71875,0.875 0,-0.03125 z" transform="translate(-4.875 1018.275)"/></g><rect width="10" height="5" x="560.321" y="958.886" fill="#5a6174" transform="rotate(20.174)"/></g><path fill="#fcead4" d="m 206.21031,1256.9114 c -0.42903,-0.1023 -0.83587,0.2907 -0.9763,0.8796 -0.0851,0.357 -0.20517,0.8929 -0.31712,1.35 l 1.49593,0.3567 0.31892,-1.3375 c 0.14043,-0.5889 -0.0925,-1.1465 -0.52143,-1.2488 z"/></g><rect width="10" height="1" x="19" y="1032.362" fill="#e2e6e9" rx="5" ry="0"/><g transform="matrix(.35294 0 0 .35294 8.466 642.09)"><path fill="#d7b2a9" fill-rule="evenodd" d="m 44.013431,1081.0201 0,16.2673 c 0,0 -8.9104,-3.8131 -12.64457,-5.4067 l -0.0105,-0.018 0,-16.2567 0.0105,0.02 12.63332,5.4067 z"/><path fill="#92828f" fill-rule="evenodd" d="m 56.658581,1075.6046 -0.0105,0.02 -12.63428,5.4075 0,16.2561 12.63428,-5.4075 0.0105,-0.02 0,-16.2561 z"/><path fill="#d2dce9" fill-rule="evenodd" d="m 56.680261,1075.6065 -12.53619,-5.4066 -0.34141,0 -12.44712,5.4066 -2e-5,0.013 12.65791,5.4318 z"/><path fill="#d9d8da" fill-rule="evenodd" d="M31.344471 1075.6152l-4.33127 4.3345 12.66897 5.418 4.33128-4.3344zM48.344711 1065.8629l-4.33126 4.3344 12.66896 5.4179 4.33128-4.3343zM56.682411 1075.6152l4.33128 4.3345-12.66898 5.418-4.33126-4.3344zM39.682171 1065.8629l4.33128 4.3344-12.66898 5.4179-4.33127-4.3343z"/><path fill="#f2f2f2" fill-rule="evenodd" d="m 44.013071,1070.1999 -0.21041,0 -12.44712,5.4066 -2e-5,0.013 12.65791,5.4318 z"/><path fill="none" d="m 56.680261,1075.6065 -12.53619,-5.4066 -0.34141,0 -12.44712,5.4066 -2e-5,0.013 12.65791,5.4318 z"/></g></g></svg>