<svg xmlns="http://www.w3.org/2000/svg" width="64" height="64" enable-background="new 0 0 64 64" viewBox="0 0 64 64"><path fill="#010101" d="M49.972,53.717H14.01c-1.281,0-2.319-1.037-2.319-2.318V15.437c0-1.28,1.038-2.319,2.319-2.319h35.962
							c1.28,0,2.318,1.039,2.318,2.319v35.962C52.291,52.68,51.252,53.717,49.972,53.717z M16.329,49.08h31.324V17.756H16.329V49.08
							z"/><path fill="#010101" d="M49.972 29.299H14.01c-1.281 0-2.319-1.038-2.319-2.318 0-1.281 1.038-2.319 2.319-2.319h35.962c1.28 0 2.318 1.038 2.318 2.319C52.291 28.261 51.252 29.299 49.972 29.299zM49.972 42.175H14.01c-1.281 0-2.319-1.038-2.319-2.319 0-1.28 1.038-2.318 2.319-2.318h35.962c1.28 0 2.318 1.038 2.318 2.318C52.291 41.137 51.252 42.175 49.972 42.175zM31.991 64c-1.281 0-2.318-1.038-2.318-2.318V51.398c0-1.281 1.037-2.318 2.318-2.318s2.319 1.037 2.319 2.318v10.283C34.31 62.962 33.272 64 31.991 64z"/><g><path fill="#010101" d="M39.698,64H24.284c-1.281,0-2.318-1.038-2.318-2.318c0-1.281,1.037-2.319,2.318-2.319h15.414
						c1.281,0,2.318,1.038,2.318,2.319C42.016,62.962,40.979,64,39.698,64z"/></g><g><path fill="#010101" d="M31.997,23.629H20.752c-1.281,0-2.318-1.038-2.318-2.319c0-1.28,1.037-2.318,2.318-2.318h11.244
					c1.28,0,2.318,1.038,2.318,2.318C34.315,22.591,33.277,23.629,31.997,23.629z"/></g><g><path fill="#010101" d="M31.997,35.779H20.752c-1.281,0-2.318-1.038-2.318-2.319c0-1.28,1.037-2.318,2.318-2.318h11.244
					c1.28,0,2.318,1.038,2.318,2.318C34.315,34.741,33.277,35.779,31.997,35.779z"/></g><g><path fill="#010101" d="M31.997,47.93H20.752c-1.281,0-2.318-1.038-2.318-2.319c0-1.28,1.037-2.318,2.318-2.318h11.244
					c1.28,0,2.318,1.038,2.318,2.318C34.315,46.892,33.277,47.93,31.997,47.93z"/></g><g><path fill="#010101" d="M49.991,17.756c-0.008-0.001-0.013-0.001-0.019,0H14.01c-0.826,0-1.59-0.439-2.005-1.153
				s-0.419-1.595-0.011-2.312l7.459-13.118C19.866,0.447,20.635,0,21.469,0h21.044c0.834,0,1.604,0.447,2.016,1.173l7.327,12.887
				c0.285,0.385,0.453,0.861,0.453,1.377C52.309,16.717,51.272,17.756,49.991,17.756z M17.997,13.117h27.989l-4.821-8.479H22.818
				L17.997,13.117z"/></g></svg>